:SAMPLES-PER-SECOND 30
:FULLY-SPECIFIED
:DEGREES
99
root  -21.3852 39.2611 -14.5086 2.38412 -40.357 -9.72388
RightUpLeg  -12.9451 -12.7875 7.40364
RightLeg  26.0442 -1.3529 -0.822839
RightFoot  -8.93013 -0.00570151 -2.59673
RightToes  2.91037e-010 0 -3.6325e-017
Spine  4.30121 -0.10896 15.6972
Spine1  10.2304 1.83476 -2.30147
HEad  -10.8669 -3.37545 -0.0439112
LeftShoulder1  9.35687 -12.9237 -49.7248
LeftArm  1.92563 15.1758 -28.0806
LeftForeArm  24.3684 -17.4953 -5.08847
LeftHand  -0.244104 0.0205437 5.32207
RightShoulder  6.62295 10.1359 42.2715
RightArm  5.52593 -1.25843 29.248
RightForeArm  -3.46501 18.9072 5.93414
RightHand  -1.03397 1.85672 -16.6589
LeftUpLeg  -13.1153 -0.409875 8.15526
LeftLeg  65.2434 -0.409472 -0.34347
LeftFoot  5.40322 0.444843 -3.26787
LeftToes  -2.38291e-010 7.29328e-011 -2.49822e-011
100
root  -22.6643 39.6446 -13.5264 1.1519 -41.0891 -8.06436
RightUpLeg  -8.48114 -12.4597 5.3957
RightLeg  23.5082 -1.06145 0.387808
RightFoot  -10.3259 -0.0501031 -2.25087
RightToes  2.91037e-010 0 -3.6325e-017
Spine  4.5133 0.670373 15.0172
Spine1  9.75201 2.82813 -3.36514
HEad  -10.0829 -3.609 -0.201594
LeftShoulder1  9.21191 -12.8578 -49.1531
LeftArm  0.23325 17.6635 -28.3774
LeftForeArm  25.2515 -15.6673 -5.6729
LeftHand  -0.244104 0.0205437 5.32207
RightShoulder  6.51796 10.088 41.7095
RightArm  6.8287 0.153461 30.236
RightForeArm  -5.15666 22.7932 5.26311
RightHand  -1.04417 1.81943 -16.904
LeftUpLeg  -17.169 0.882254 6.86499
LeftLeg  62.3621 0.748009 2.15916
LeftFoot  2.06717 0.160865 -1.50896
LeftToes  -2.38291e-010 7.29328e-011 -2.49822e-011
101
root  -23.8916 39.9851 -12.5321 0.24028 -41.5322 -6.53749
RightUpLeg  -4.21058 -11.2309 3.31263
RightLeg  20.5044 -1.67674 1.81184
RightFoot  -11.2732 -0.0751477 -1.94029
RightToes  2.91037e-010 0 -3.6325e-017
Spine  4.45472 1.19398 14.5076
Spine1  9.25782 3.49305 -4.65508
HEad  -9.21122 -3.62161 -0.683129
LeftShoulder1  9.16481 -12.8816 -48.83
LeftArm  -0.669947 20.1962 -28.2344
LeftForeArm  25.94 -14.3071 -6.08418
LeftHand  -0.244104 0.0205437 5.32207
RightShoulder  6.32744 9.90051 41.0069
RightArm  5.57999 1.56799 31.3837
RightForeArm  -4.10657 26.3039 5.84043
RightHand  -1.01962 1.62346 -16.9569
LeftUpLeg  -20.5827 1.71955 5.3692
LeftLeg  56.5891 1.23288 2.55132
LeftFoot  0.198978 0.116938 -1.18503
LeftToes  -2.38291e-010 7.29328e-011 -2.49822e-011
102
root  -25.0645 40.2079 -11.5398 -0.328369 -42.195 -5.35577
RightUpLeg  -0.332952 -9.81416 1.68159
RightLeg  17.5824 -2.05371 3.07424
RightFoot  -12.1342 -0.0917167 -1.4603
RightToes  2.91037e-010 0 -3.6325e-017
Spine  4.28817 1.70479 14.275
Spine1  9.03202 4.12978 -5.97731
HEad  -8.55378 -3.6685 -1.2533
LeftShoulder1  9.20632 -12.9349 -48.8925
LeftArm  -1.24475 22.4245 -27.8386
LeftForeArm  26.9957 -13.2296 -6.3632
LeftHand  -0.244104 0.0205437 5.32207
RightShoulder  6.19792 9.75365 40.5798
RightArm  4.6648 3.03537 32.0343
RightForeArm  -2.85778 29.8752 6.66258
RightHand  -0.93849 1.19316 -16.6172
LeftUpLeg  -22.9824 3.36565 3.98814
LeftLeg  48.2006 0.996751 1.63539
LeftFoot  -0.850943 0.181627 -1.92132
LeftToes  -2.38291e-010 7.29328e-011 -2.49822e-011
103
root  -26.211 40.2352 -10.5256 -0.406769 -43.0086 -4.7531
RightUpLeg  2.96947 -8.82076 0.77087
RightLeg  15.4885 -1.8908 3.88974
RightFoot  -13.4171 -0.11062 -1.07291
RightToes  2.91037e-010 0 -3.6325e-017
Spine  3.8816 2.16425 14.5267
Spine1  9.18714 4.71117 -7.15797
HEad  -8.2706 -3.63375 -1.8263
LeftShoulder1  9.24625 -12.9516 -49.0553
LeftArm  -1.97819 24.385 -27.569
LeftForeArm  27.9845 -12.3876 -6.48589
LeftHand  -0.244104 0.0205437 5.32207
RightShoulder  6.17858 9.7612 40.4166
RightArm  4.31844 4.53199 32.2443
RightForeArm  -1.69715 33.2151 7.47036
RightHand  -0.862822 0.742033 -16.3888
LeftUpLeg  -24.3869 5.89411 2.78025
LeftLeg  37.9141 0.348121 0.641656
LeftFoot  -0.882875 0.281288 -3.01033
LeftToes  -2.38291e-010 7.29328e-011 -2.49822e-011
104
root  -27.3625 40.1859 -9.48283 -0.217575 -43.6864 -4.35472
RightUpLeg  6.11506 -8.24349 0.202945
RightLeg  13.4594 -1.66611 4.31822
RightFoot  -14.6697 -0.138269 -1.32425
RightToes  2.91037e-010 0 -3.6325e-017
Spine  3.10464 2.52901 14.7283
Spine1  9.68406 5.15846 -8.23246
HEad  -8.27287 -3.38774 -2.39262
LeftShoulder1  9.23099 -12.9176 -49.0754
LeftArm  -2.93911 26.1561 -27.5878
LeftForeArm  28.458 -11.6084 -6.51626
LeftHand  -0.244104 0.0205437 5.32207
RightShoulder  6.19476 9.82667 40.3151
RightArm  4.31282 5.8326 32.3791
RightForeArm  -0.586337 36.0052 8.19337
RightHand  -0.822563 0.378015 -16.5852
LeftUpLeg  -24.8405 8.78156 1.14214
LeftLeg  25.9703 -0.938851 0.0643789
LeftFoot  -0.382538 0.333395 -3.45514
LeftToes  -2.38291e-010 7.29328e-011 -2.49822e-011
